<svg version="1.1" xmlns="http://www.w3.org/2000/svg" viewBox="0 0 2575.1666666666665 1893.666666666667" width="2575.1666666666665" height="1893.666666666667">
  <!-- svg-source:excalidraw -->
  
  <defs>
    <style>
      @font-face {
        font-family: "Virgil";
        src: url("https://excalidraw.com/Virgil.woff2");
      }
      @font-face {
        font-family: "Cascadia";
        src: url("https://excalidraw.com/Cascadia.woff2");
      }
    </style>
  </defs>
  <rect x="0" y="0" width="2575.1666666666665" height="1893.666666666667" fill="#ffffff"></rect><g transform="translate(1242.5 910.75) rotate(0 123.5 12.5)"><text x="0" y="18" font-family="Virgil, Segoe UI Emoji" font-size="20px" fill="#000000" text-anchor="start" style="white-space: pre;" direction="ltr">"Completed movie options"</text></g><g stroke-linecap="round" transform="translate(2113.420572916667 494.94140625) rotate(0 20.77473958333337 21.331380208333314)"><path d="M16.57 -0.06 C20.61 -1.12, 27.43 -0.01, 31.32 2.36 C35.22 4.74, 38.38 10.02, 39.94 14.18 C41.5 18.33, 41.96 22.99, 40.68 27.3 C39.41 31.6, 36 37.59, 32.28 40.02 C28.57 42.44, 22.77 42.58, 18.4 41.85 C14.02 41.12, 8.95 38.99, 6.01 35.64 C3.08 32.3, 1.01 26.34, 0.78 21.79 C0.56 17.23, 1.41 12.09, 4.66 8.33 C7.91 4.56, 17.25 0.48, 20.3 -0.79 C23.35 -2.06, 23.06 0.15, 22.98 0.7 M23.97 0.47 C28.24 0.93, 33.78 3.55, 36.49 6.6 C39.19 9.65, 40.17 14.24, 40.2 18.79 C40.23 23.33, 39.24 30.05, 36.67 33.86 C34.1 37.68, 29.02 40.54, 24.81 41.67 C20.59 42.8, 15.21 42.9, 11.38 40.64 C7.55 38.39, 3.79 32.33, 1.84 28.16 C-0.1 23.99, -1.63 19.86, -0.3 15.64 C1.03 11.42, 5.98 5.59, 9.8 2.83 C13.63 0.08, 20.28 -0.46, 22.65 -0.86 C25.01 -1.26, 23.69 -0.06, 23.98 0.42" stroke="#000000" stroke-width="1" fill="none"></path></g><g transform="translate(2157.5 346.1666666666667) rotate(0 71.5 12.5)"><text x="0" y="18" font-family="Virgil, Segoe UI Emoji" font-size="20px" fill="#000000" text-anchor="start" style="white-space: pre;" direction="ltr">MOVIE IMAGE</text></g><g stroke-linecap="round" transform="translate(2008.6132812500002 183.29166666666674) rotate(0 215.83333333333337 183.33333333333331)"><path d="M0.05 0.01 C120.29 1.44, 238.1 0.86, 431.38 0.55 M0.27 -0.21 C122.07 -0.54, 243.71 -0.58, 431.77 0.39 M432.85 0.57 C429.79 142.12, 431.32 284.21, 432.81 367.37 M431.97 -0.49 C430.37 102, 430.72 204.47, 432.12 366.74 M431.77 367.58 C288.17 365.57, 144.78 366.37, -0.37 366.3 M431.16 366.59 C311.6 366.82, 191.13 367.23, 0.39 366.72 M-0.81 366.2 C0.69 257.88, 1.07 148.72, -0.32 -0.29 M-0.1 366.83 C-1.34 276.26, -0.71 185.45, -0.25 -0.47" stroke="#000000" stroke-width="1" fill="none"></path></g><g stroke-linecap="round" transform="translate(2406.1666666666665 66.75) rotate(0 74.5 17)"><path d="M1.88 1.37 C56.66 0.64, 108.01 1.54, 149.49 -1.29 M0.73 -0.12 C54.32 1.98, 109.36 1.88, 149.97 -0.7 M148.79 -0.73 C150.29 6.44, 148.22 16.16, 148.62 35.34 M148.95 -0.74 C148.44 10.2, 148.78 20.84, 149.99 34.45 M148.59 34.58 C95.42 32.86, 45.19 35.31, 1.05 32.97 M149.72 34.2 C116.55 32.45, 84.07 32.04, -0.59 33.89 M1.59 35.85 C-1.43 26.51, -0.62 18.04, -1.07 0.94 M-0.66 33.83 C0.64 25.3, 0.47 16.22, -0.95 -0.06" stroke="#000000" stroke-width="1" fill="none"></path></g><g stroke-linecap="round" transform="translate(36.5 55.5) rotate(0 329.5 384.5)"><path d="M0.24 -0.05 C134.96 0.57, 270.77 0.31, 658.57 0.42 M0.14 -0.07 C255.39 -1.78, 510.84 -2.18, 659.08 0.21 M659.2 0.4 C662.34 188.76, 661.21 376.12, 659.2 768.93 M659.05 0.24 C659.06 205.23, 658.68 410.1, 658.65 768.91 M658.68 769.68 C462.09 766.39, 266.12 766.22, 0.77 768.37 M659.03 768.67 C401.54 769.04, 143.68 768.75, 0.15 768.96 M0.74 769.32 C1.83 512.56, 1.08 255.14, 0.23 -0.47 M0.08 768.69 C-2.88 506.22, -2.63 243.35, -0.25 0.2" stroke="#000000" stroke-width="1" fill="none"></path></g><g stroke-linecap="round"><g transform="translate(712.5 321.5) rotate(0 124.65414643064139 -0.9173920155549311)"><path d="M-0.81 -0.86 C40.79 -1.49, 208.41 -2.82, 250.12 -3.13 M0.96 1.3 C42.45 0.81, 208.41 -0.6, 249.73 -1.63" stroke="#000000" stroke-width="1" fill="none"></path></g><g transform="translate(712.5 321.5) rotate(0 124.65414643064139 -0.9173920155549311)"><path d="M220.26 10.84 C231.14 6.22, 241.41 3.45, 249.52 -0.21 M221.67 8.41 C231.87 3.89, 244.27 0.46, 250.23 -2.33" stroke="#000000" stroke-width="1" fill="none"></path></g><g transform="translate(712.5 321.5) rotate(0 124.65414643064139 -0.9173920155549311)"><path d="M219.94 -9.68 C231.04 -7.27, 241.42 -3.01, 249.52 -0.21 M221.35 -12.11 C231.54 -8.72, 244.07 -4.23, 250.23 -2.33" stroke="#000000" stroke-width="1" fill="none"></path></g></g><g stroke-linecap="round" transform="translate(968.5 44.5) rotate(0 329.5 384.5)"><path d="M-0.65 0.69 C152.62 2.28, 305.81 2.9, 659.54 -0.74 M-0.39 0.17 C159.28 -2.81, 318.53 -2.3, 659.26 0.38 M659.33 0.46 C656.94 204.83, 657.75 409.04, 658.22 768.7 M658.67 -0.01 C659.6 155.16, 659.02 310.56, 658.62 769.38 M659.69 768.72 C504.33 770.32, 350.05 769.63, 0.25 768.33 M659.07 769.16 C401.61 770.96, 145.2 770.74, -0.07 768.95 M-0.54 769.36 C-0.82 516.92, -1.03 265.95, -0.53 -0.21 M-0.05 768.75 C0.79 568.42, 0.8 367.72, 0.14 -0.33" stroke="#000000" stroke-width="1" fill="none"></path></g><g stroke-linecap="round"><g transform="translate(1646.5 333) rotate(0 122.02846707093056 -0.5471864081919264)"><path d="M-0.16 0.24 C40.88 0.11, 205 -1.38, 245.76 -1.34 M-1.7 -0.67 C39.29 -0.62, 204.42 -0.05, 245.27 -0.15" stroke="#000000" stroke-width="1" fill="none"></path></g><g transform="translate(1646.5 333) rotate(0 122.02846707093056 -0.5471864081919264)"><path d="M217.48 11.55 C223.38 6.65, 233.79 3.93, 246.33 1.54 M216.69 10.19 C226.68 6.25, 237 2.52, 245.06 -0.44" stroke="#000000" stroke-width="1" fill="none"></path></g><g transform="translate(1646.5 333) rotate(0 122.02846707093056 -0.5471864081919264)"><path d="M217.5 -8.97 C223.31 -8.5, 233.71 -5.85, 246.33 1.54 M216.71 -10.34 C226.7 -6.75, 237.01 -2.96, 245.06 -0.44" stroke="#000000" stroke-width="1" fill="none"></path></g></g><g stroke-linecap="round" transform="translate(1904.5 47.75) rotate(0 329.5 384.5)"><path d="M0.54 -0.07 C255.32 -0.06, 511.65 -0.04, 659.08 -0.58 M0.28 -0.32 C233.75 1.99, 468.01 1.39, 659.37 -0.32 M658.51 0.65 C662.28 293.33, 661.69 587.23, 658.33 768.58 M659.05 0.04 C658.41 228.52, 658.12 456.84, 658.83 768.9 M659.39 768.3 C488.49 770.01, 318.83 769.55, -0.22 769.09 M658.68 768.98 C398.36 767.93, 138.59 767.84, -0.03 769.38 M-0.49 769.73 C1.23 575.74, 2.55 380.77, 0.25 -0.12 M-0.17 768.73 C1.92 526.74, 1.58 285.17, 0.02 0.1" stroke="#000000" stroke-width="1" fill="none"></path></g><g transform="translate(1168.5 178.5) rotate(0 45.5 25)"><text x="0" y="18" font-family="Virgil, Segoe UI Emoji" font-size="20px" fill="#000000" text-anchor="start" style="white-space: pre;" direction="ltr">Search</text><text x="0" y="43" font-family="Virgil, Segoe UI Emoji" font-size="20px" fill="#000000" text-anchor="start" style="white-space: pre;" direction="ltr">by name: </text></g><g stroke-linecap="round" transform="translate(1269.6432291666667 187.5) rotate(0 107.5 15)"><path d="M-1.45 0.56 C82 -1.55, 166 0.54, 214.37 1.3 M-0.56 0.32 C57.41 -0.62, 114.46 0.06, 215.77 -0.31 M215.5 -1.79 C216.64 10.71, 214.65 21.94, 215.06 31.79 M215.11 0.97 C215.3 9.72, 215.26 20.19, 214.51 30.62 M215.47 29.11 C172.83 29.14, 126.95 29.49, -1.52 30.2 M214.35 30.68 C171.01 29.84, 128.58 30.47, -0.39 30.1 M-0.35 31.1 C-1.6 20.95, 0.38 9.55, 1.96 -1.27 M0.4 30.37 C-0.23 22.31, 0.94 13.35, 0.63 0.38" stroke="#000000" stroke-width="1" fill="none"></path></g><g stroke-linecap="round" transform="translate(1155.5 163.5) rotate(0 177.5 233.5)"><path d="M-0.44 -0.15 C103.51 0.49, 208.6 -1.76, 354.38 0.84 M0.28 -0.4 C104.73 -1.6, 210.58 -1.54, 355.56 0.3 M354.32 0.27 C355.34 146.81, 356.02 294.91, 355.05 466.67 M355.07 -0.37 C354.08 163.39, 353.59 327.65, 354.82 466.62 M354.61 466.36 C242.72 467.07, 129.02 466.74, -1.1 466.95 M354.93 467 C239.27 467.38, 122.57 467.62, 0.3 467.06 M0 466.22 C-0.26 335.93, 0.12 205.48, -0.68 -0.79 M-0.08 467.36 C0.89 336.55, 1.18 205.91, -0.18 -0.03" stroke="#000000" stroke-width="1" fill="none"></path></g><g transform="translate(1111.24609375 14.313802083333314) rotate(0 75.5 12.5)"><text x="0" y="18" font-family="Virgil, Segoe UI Emoji" font-size="20px" fill="#000000" text-anchor="start" style="white-space: pre;" direction="ltr">(Start Session)</text></g><g transform="translate(1006.5 10) rotate(0 49.5 12.5)"><text x="0" y="18" font-family="Virgil, Segoe UI Emoji" font-size="20px" fill="#000000" text-anchor="start" style="white-space: pre;" direction="ltr">/homepage</text></g><g stroke-linecap="round" transform="translate(37.5 778.5) rotate(0 329.5 22.5)"><path d="M0.16 0.41 C132.19 -1.93, 263.48 -1.57, 658.23 0.76 M-0.05 0 C150.86 1.77, 302.05 1.66, 659.36 0.11 M659.5 1.34 C660.06 15, 659.81 27.47, 659.02 46.89 M658.96 -0.85 C658.78 15.07, 658.17 27.99, 658.91 45.36 M658.9 45.78 C494.02 45.32, 327.73 45.89, 0.5 44.92 M658.99 45.39 C466.94 43.44, 275.35 43.11, -0.22 44.69 M0.8 45.8 C-1.76 31.3, 1.2 18.46, -0.23 0.86 M-0.31 44.26 C-0.86 29.69, -0.24 14.32, -0.97 0.59" stroke="#000000" stroke-width="1" fill="none"></path></g><g stroke-linecap="round" transform="translate(64.08984375 795.23828125) rotate(0 54.125 8.337890625)"><path d="M0.49 0.29 C32.8 1.44, 61.12 -0.5, 107.26 -0.61 M0.15 -0.07 C43.04 0.69, 84.87 0.76, 107.52 0.92 M107.7 0.53 C107.36 3.63, 108.13 7.41, 108.6 16.25 M108.82 0.22 C108.45 5.26, 107.64 12.3, 107.47 16.05 M107.95 16.38 C66.33 16.46, 24.18 15.19, 1.03 17.72 M107.35 17.02 C80.61 16.39, 52.12 16.75, 0.33 16.38 M-0.84 16.17 C0.27 12.46, 1.14 8.2, 0.78 1.36 M0.31 16.24 C-0.18 12.9, 0.65 7.27, 0.63 0.54" stroke="#000000" stroke-width="1" fill="none"></path></g><g stroke-linecap="round" transform="translate(631.5 793.5) rotate(0 18.5 12)"><path d="M-0.62 1.91 C14.48 0.15, 28.06 1.77, 36.52 1.77 M-0.2 0.01 C8.68 -0.03, 17.21 1.3, 36.5 0.19 M38.6 1.64 C37.62 8.73, 38.55 19.41, 37.83 25.09 M36.88 0.75 C36.12 9.56, 37.92 18.1, 36.47 24.05 M37.95 22.6 C23.72 24.5, 12.44 22.91, -0.54 24.21 M37.13 24.21 C26.8 23.29, 18.55 23.52, -0.31 24.76 M1.63 22.18 C1.29 14.54, -1.03 9.22, 0.98 1.77 M-0.97 24.97 C-0.95 16.21, -0.79 8.46, -0.61 -0.16" stroke="#000000" stroke-width="1" fill="none"></path></g><g transform="translate(555 793) rotate(0 32.5 12.5)"><text x="32.5" y="18" font-family="Virgil, Segoe UI Emoji" font-size="20px" fill="#000000" text-anchor="middle" style="white-space: pre;" direction="ltr">linkedin</text></g><g stroke-linecap="round" transform="translate(551.5 795.5) rotate(0 36 10)"><path d="M-1.56 -0.01 C16.78 -1.07, 32.73 1.2, 70.43 -0.22 M0.43 0.43 C27.44 0, 52.83 -0.65, 71.53 0.11 M73.17 0.01 C70.82 6.09, 73.61 10.83, 73.11 20.62 M72.19 0.64 C72.75 4.49, 70.91 9.52, 71.85 19.19 M72.4 21.7 C47.1 21.68, 25.39 18.79, -0.62 21.91 M72.75 19.76 C48.64 19.52, 22.98 19.25, -0.2 20.01 M1.9 18.99 C0.46 15.44, 0.05 7.51, 1.6 1.64 M0.48 20.41 C0.6 14.15, 0.02 6.87, -0.12 0.75" stroke="#000000" stroke-width="1" fill="none"></path></g><g transform="translate(1200.20703125 238.671875) rotate(0 122.5 12.5)"><text x="0" y="18" font-family="Virgil, Segoe UI Emoji" font-size="20px" fill="#000000" text-anchor="start" style="white-space: pre;" direction="ltr">&lt;list of selected videos&gt;</text></g><g stroke-linecap="round" transform="translate(1191.5 232.5) rotate(0 134.5 21)"><path d="M1.02 0.34 C93.83 3.28, 186.06 1.35, 268.42 -1.32 M0.35 0.2 C95.3 2.82, 191.85 1.78, 268.26 -0.41 M270 -0.57 C269.96 10.13, 267.51 24.49, 269.84 40.22 M269.13 -0.4 C269.65 10.52, 269.21 21.5, 268.77 41.69 M268.65 42.94 C183.49 41.35, 99.78 38.59, 0.04 40.68 M268.22 42.68 C199.78 42.56, 131.65 41.78, -0.17 42.42 M0.14 40.41 C-1.54 26.7, -1.77 10.02, -0.94 -0.38 M0.34 41.53 C-0.99 30.02, -0.36 15.93, 0.39 0.76" stroke="#000000" stroke-width="1" fill="none"></path></g><g transform="translate(53.5 24.5) rotate(0 49.5 12.5)"><text x="0" y="18" font-family="Virgil, Segoe UI Emoji" font-size="20px" fill="#000000" text-anchor="start" style="white-space: pre;" direction="ltr">/homepage</text></g><g stroke-linecap="round" transform="translate(36.5 54.5) rotate(0 329.5 33.5)"><path d="M0.44 0.74 C189.11 2.98, 380.02 2.26, 659.4 -0.45 M0.13 0.32 C217.67 -0.89, 434.44 -1.55, 659.22 -0.24 M660.87 -0.21 C657.98 23.56, 660.22 45.78, 657.76 66.54 M659.5 0.87 C658.84 21.3, 658.72 44.23, 658.68 66.65 M658.35 67.21 C403.91 66.82, 149.3 67.61, 0.75 66.88 M659.2 67.3 C487.66 69.7, 316.96 69.38, 0.01 66.64 M1.82 68.8 C-1.13 45.84, -1.18 21.04, -0.24 -1.77 M0.76 66.18 C1.19 54.39, -0.58 39.93, 0.43 -0.65" stroke="#000000" stroke-width="1" fill="none"></path></g><g transform="translate(541.5 78.5) rotate(0 68 12.5)"><text x="0" y="18" font-family="Virgil, Segoe UI Emoji" font-size="20px" fill="#000000" text-anchor="start" style="white-space: pre;" direction="ltr">Start Session</text></g><g stroke-linecap="round" transform="translate(536.5 74.5) rotate(0 74.5 17)"><path d="M1.88 -0.8 C49.29 0.52, 101.73 -0.94, 150.26 -1.73 M-0.02 -0.96 C38.34 -0.19, 76.11 -1.21, 148.68 0 M149.43 1.28 C150.69 7.22, 146.77 15.3, 147.5 35.74 M148.89 -0.95 C149.62 7.7, 147.98 15.26, 148.4 34.3 M150.42 34.2 C98.52 35.09, 44.95 32.62, -0.3 33.16 M149.71 33.12 C105.82 32.63, 61.97 31.68, -0.24 34.2 M0.18 33.1 C1.58 19.19, -0.46 7.52, -1.74 -1.8 M-0.84 34.13 C-0.85 23.64, 0.1 12.01, -0.12 -0.11" stroke="#000000" stroke-width="1" fill="none"></path></g><g stroke-linecap="round" transform="translate(56.5 70.5) rotate(0 59 18.5)"><path d="M-0.42 -1.21 C43.69 2.07, 86.67 0.55, 119.42 0.2 M-0.46 -0.15 C40.61 0.63, 82.11 -0.27, 118.71 -0.88 M116.21 -0.48 C118.42 14.94, 116.76 26.33, 118.18 36.1 M117.9 -0.87 C116.79 13.78, 118.65 27.36, 117.16 37.13 M116.93 36.76 C88.49 36.86, 58.08 38.06, 0.07 35.72 M117.62 36.96 C79.87 36.45, 42.16 36, -0.12 36.26 M-0.97 38.3 C0.01 23.15, 1.64 9.01, -1.26 -0.88 M0.87 37.46 C-0.17 25.56, -0.48 12.23, 0.3 -0.96" stroke="#000000" stroke-width="1" fill="none"></path></g><g transform="translate(82.5 77.5) rotate(0 28.5 12.5)"><text x="0" y="18" font-family="Virgil, Segoe UI Emoji" font-size="20px" fill="#000000" text-anchor="start" style="white-space: pre;" direction="ltr">LOGO</text></g><g stroke-linecap="round" transform="translate(102.5 225.5) rotate(0 270.5 113)"><path d="M-0.7 0.31 C187.5 -0.24, 374.35 -0.8, 541.33 -0.59 M0.37 -0.19 C212.21 0.89, 424.18 1.57, 540.91 0.33 M540.5 -1.05 C539.86 83.81, 540.82 170, 541.6 227.07 M541.4 -0.55 C540.89 60.19, 541.33 120.09, 540.42 225.69 M541.53 226.18 C360.55 225.9, 179.26 226.14, -0.61 226.01 M541.31 225.72 C356.08 227.28, 170.77 227.56, -0.37 226.1 M-0.33 226.32 C2.36 152.36, 0.12 80.2, 0.48 -1.68 M0.77 226.74 C-1.02 175.74, -2.11 124.44, 0.28 -0.64" stroke="#000000" stroke-width="1" fill="none"></path></g><g transform="translate(116.5 194.5) rotate(0 106.5 12.5)"><text x="0" y="18" font-family="Virgil, Segoe UI Emoji" font-size="20px" fill="#000000" text-anchor="start" style="white-space: pre;" direction="ltr">Description of service</text></g><g transform="translate(242.5 138.5) rotate(0 121.5 12.5)"><text x="0" y="18" font-family="Virgil, Segoe UI Emoji" font-size="20px" fill="#000000" text-anchor="start" style="white-space: pre;" direction="ltr">WELCOME TO NOTFLIX!</text></g><g transform="translate(644.5 794.5) rotate(0 5.5 12.5)"><text x="0" y="18" font-family="Virgil, Segoe UI Emoji" font-size="20px" fill="#000000" text-anchor="start" style="white-space: pre;" direction="ltr">F</text></g><g transform="translate(335.5 784.5) rotate(0 42 12.5)"><text x="0" y="18" font-family="Virgil, Segoe UI Emoji" font-size="20px" fill="#000000" text-anchor="start" style="white-space: pre;" direction="ltr">FOOTER</text></g><g transform="translate(327 75.5) rotate(0 39 12.5)"><text x="39" y="18" font-family="Virgil, Segoe UI Emoji" font-size="20px" fill="#000000" text-anchor="middle" style="white-space: pre;" direction="ltr">NAVBAR</text></g><g transform="translate(736.5 248.5) rotate(0 99.5 12.5)"><text x="0" y="18" font-family="Virgil, Segoe UI Emoji" font-size="20px" fill="#000000" text-anchor="start" style="white-space: pre;" direction="ltr">"click Start Session"</text></g><g stroke-linecap="round" transform="translate(969.5 767.5) rotate(0 329.5 22.5)"><path d="M0.65 -0.23 C241.89 -1.04, 484.2 -1.86, 659.69 -0.02 M0.27 -0.37 C201.53 -2.22, 403.89 -2.58, 659.17 0.03 M660.32 1.91 C658.34 7.86, 659.57 18.95, 660.16 44.48 M658.03 -0.37 C658.36 17.4, 659.99 33.79, 658.96 45.79 M658.24 45.77 C479.97 44.43, 302.16 45.71, -0.28 44.63 M659.13 44.66 C400.29 45.09, 141.16 45.27, 0.16 44.63 M-0.34 44.77 C0.27 33.16, -2.14 18.61, 0.9 0.57 M-0.66 44.74 C-0.4 35.11, -0.55 25.64, -0.63 -0.21" stroke="#000000" stroke-width="1" fill="none"></path></g><g stroke-linecap="round" transform="translate(996.08984375 784.23828125) rotate(0 54.125 8.337890625)"><path d="M-0.57 -1.37 C41.82 -2.58, 81.16 0.84, 108.19 0.12 M-0.93 -0.58 C39.5 0.19, 78.22 -0.31, 108.33 -0.99 M109.84 -0.58 C107.3 5.56, 108.98 11.17, 107.81 18.09 M107.94 -0.82 C108.48 6.8, 107.71 12.47, 108.91 16.43 M110.17 15.36 C81.37 16.09, 59.16 14.95, -0.92 18.54 M107.41 17.58 C80.22 17.8, 52.9 17.41, -0.92 16.46 M-0.19 17.12 C0.7 9.13, -1 5.47, 0.48 -1.44 M-0.22 16.35 C-0.18 11.18, -0.06 6.05, -0.17 0.25" stroke="#000000" stroke-width="1" fill="none"></path></g><g stroke-linecap="round" transform="translate(1563.5 782.5) rotate(0 18.5 12)"><path d="M-1.37 0.42 C11.1 -1.53, 27.31 0.05, 37.12 1.32 M-0.58 -0.1 C15.08 -0.64, 28.75 0.42, 36.01 0.06 M36.31 -1.2 C37.7 8.73, 38.32 15.31, 38.69 25.5 M36.02 0.09 C37.42 8.59, 36.73 19.63, 36.71 23.35 M35.68 22.53 C26.31 26.08, 14.04 23.43, 1.86 23.13 M37.9 23.74 C26.41 23.87, 14.65 22.77, -0.22 24.58 M0.54 24.68 C-1.84 17.28, 0.94 13.84, -1.73 0.06 M-0.39 23.72 C-0.38 17.5, -0.47 11.06, 0.3 -0.18" stroke="#000000" stroke-width="1" fill="none"></path></g><g transform="translate(1487 782) rotate(0 32.5 12.5)"><text x="32.5" y="18" font-family="Virgil, Segoe UI Emoji" font-size="20px" fill="#000000" text-anchor="middle" style="white-space: pre;" direction="ltr">linkedin</text></g><g stroke-linecap="round" transform="translate(1483.5 784.5) rotate(0 36 10)"><path d="M-1.7 -1.64 C21.28 -0.21, 39.24 1.16, 73.66 1.34 M0.92 -0.98 C15.33 0.15, 28.84 0.13, 72.3 0.66 M72.55 0.82 C73.09 7.38, 73.62 17.31, 73.85 18.05 M72.65 -0.83 C71.77 6.04, 71.51 9.85, 72.01 19.05 M72.43 21.72 C42.79 18.55, 16.86 18.6, 0.15 20.63 M72.78 20.18 C56.83 18.89, 40.66 20.4, -0.76 19.83 M-1.88 18.65 C0.84 14.8, -1.78 8.52, -0.7 -1.32 M-0.54 19.86 C-0.55 14.32, 0.37 8.87, 0.3 0.34" stroke="#000000" stroke-width="1" fill="none"></path></g><g stroke-linecap="round" transform="translate(968.5 43.5) rotate(0 329.5 33.5)"><path d="M0.69 -0.02 C211.66 2.68, 423.88 2.69, 658.26 -0.47 M0.17 0.03 C190.92 2.61, 382.74 2.85, 659.38 -0.14 M660.16 -0.52 C660.88 17.57, 661.03 30.2, 658.25 65.04 M658.96 0.79 C659.15 20.06, 659.45 40.47, 659.96 66.34 M658.72 66.63 C510.46 68.92, 360.48 69.53, -0.67 67.72 M659.16 66.63 C478.44 67.72, 297.74 67.41, -0.05 67.11 M0.9 67.57 C-1.1 44.67, -0.07 20.9, -0.52 -0.78 M-0.63 66.79 C0.66 48.63, 0.66 30.96, -0.82 -0.78" stroke="#000000" stroke-width="1" fill="none"></path></g><g stroke-linecap="round" transform="translate(988.5 59.5) rotate(0 59 18.5)"><path d="M1.32 1.66 C46.9 -1.93, 89.96 -0.27, 119.83 -1.96 M0.06 0.3 C40.95 2.12, 80.24 0.56, 118.27 0.41 M119.5 1.85 C115.95 12.5, 115.94 26.67, 119.31 35.34 M117.35 0.01 C117.35 11.92, 117.63 21.2, 118.22 37.86 M117.13 37.15 C87.39 36.42, 57.32 37.58, 1.55 37.37 M118.58 36.24 C77.85 36.63, 38.31 37.08, -0.94 36.32 M0.06 36.3 C-1.43 23.71, -0.89 10.91, -1.08 -0.27 M-0.18 37.3 C0.42 27.41, -0.7 18.53, -0.85 -0.87" stroke="#000000" stroke-width="1" fill="none"></path></g><g transform="translate(1014.5 66.5) rotate(0 28.5 12.5)"><text x="0" y="18" font-family="Virgil, Segoe UI Emoji" font-size="20px" fill="#000000" text-anchor="start" style="white-space: pre;" direction="ltr">LOGO</text></g><g transform="translate(1576.5 783.5) rotate(0 5.5 12.5)"><text x="0" y="18" font-family="Virgil, Segoe UI Emoji" font-size="20px" fill="#000000" text-anchor="start" style="white-space: pre;" direction="ltr">F</text></g><g transform="translate(1267.5 773.5) rotate(0 42 12.5)"><text x="0" y="18" font-family="Virgil, Segoe UI Emoji" font-size="20px" fill="#000000" text-anchor="start" style="white-space: pre;" direction="ltr">FOOTER</text></g><g transform="translate(1259 64.5) rotate(0 39 12.5)"><text x="39" y="18" font-family="Virgil, Segoe UI Emoji" font-size="20px" fill="#000000" text-anchor="middle" style="white-space: pre;" direction="ltr">NAVBAR</text></g><g stroke-linecap="round" transform="translate(1400.5 565) rotate(0 53 26)"><path d="M1.92 -0.28 C36.84 -0.25, 68.25 2.87, 106.58 -1.1 M-0.38 0.74 C28.01 -0.24, 55.54 -0.88, 106.38 -0.33 M105.4 0.57 C105.29 18.4, 106.26 37.08, 105.1 52.61 M105.85 -0.86 C105 13.34, 105 25.82, 105.08 52.16 M107.95 53.57 C67.03 50.25, 26.34 50.94, 1.17 52.31 M105.52 52.9 C66.3 52.5, 27.37 52.11, -0.84 51.81 M-1.37 52.62 C-0.44 33.96, -2.18 14.12, -1.92 1.01 M-0.86 51.68 C-0.85 32.3, 0.41 12.89, -0.44 -0.82" stroke="#000000" stroke-width="1" fill="none"></path></g><g transform="translate(1408.5 584) rotate(0 46.5 12.5)"><text x="0" y="18" font-family="Virgil, Segoe UI Emoji" font-size="20px" fill="#000000" text-anchor="start" style="white-space: pre;" direction="ltr">Let's Go!</text></g><g stroke-linecap="round" transform="translate(1178.5 567) rotate(0 86 25)"><path d="M-0.24 -0.39 C60.66 0.59, 122.31 0.21, 171.65 0.64 M0.84 0.39 C36.54 -0.56, 74.45 -0.77, 171.13 -0.71 M173.63 1.79 C170.52 9.56, 171.4 20.77, 173.67 51.29 M172.37 0.08 C171.5 12.15, 170.79 25.37, 172.02 50.39 M173.96 49.78 C134.54 50.67, 99.71 53.26, -0.84 51.6 M171 50.6 C124.73 51.55, 78.78 51.06, 0.36 50.12 M-1.05 48.07 C-1.39 32.56, 0.36 13.57, -1.05 0.09 M-0.63 50.79 C-0.64 31.55, 0.97 12.2, -0.07 -0.14" stroke="#000000" stroke-width="1" fill="none"></path></g><g transform="translate(1184.5 572) rotate(0 77.5 12.5)"><text x="0" y="18" font-family="Virgil, Segoe UI Emoji" font-size="20px" fill="#000000" text-anchor="start" style="white-space: pre;" direction="ltr">cancel, I'm lame</text></g><g transform="translate(1166.0455729166667 339.5638020833333) rotate(0 168.5 37.5)"><text x="0" y="18" font-family="Virgil, Segoe UI Emoji" font-size="20px" fill="#000000" text-anchor="start" style="white-space: pre;" direction="ltr">Filters:</text><text x="0" y="43" font-family="Virgil, Segoe UI Emoji" font-size="20px" fill="#000000" text-anchor="start" style="white-space: pre;" direction="ltr">- TV or Movie?</text><text x="0" y="68" font-family="Virgil, Segoe UI Emoji" font-size="20px" fill="#000000" text-anchor="start" style="white-space: pre;" direction="ltr">- category (comedy, romantic etc.)</text></g><g transform="translate(1180.5 456) rotate(0 159 37.5)"><text x="0" y="18" font-family="Virgil, Segoe UI Emoji" font-size="20px" fill="#000000" text-anchor="start" style="white-space: pre;" direction="ltr">!important!</text><text x="0" y="43" font-family="Virgil, Segoe UI Emoji" font-size="20px" fill="#000000" text-anchor="start" style="white-space: pre;" direction="ltr">- number of options (default 10)</text><text x="0" y="68" font-family="Virgil, Segoe UI Emoji" font-size="20px" fill="#000000" text-anchor="start" style="white-space: pre;" direction="ltr">- number of participants</text></g><g transform="translate(1700.5 240) rotate(0 72 12.5)"><text x="0" y="18" font-family="Virgil, Segoe UI Emoji" font-size="20px" fill="#000000" text-anchor="start" style="white-space: pre;" direction="ltr">"click Let's go"</text></g><g stroke-linecap="round" transform="translate(1905.5 770.75) rotate(0 329.5 22.5)"><path d="M-0.54 -0.58 C260 -1.73, 518.85 -1.65, 658.93 -0.24 M0.04 -0.29 C259.78 -2.44, 518.86 -2.26, 658.68 -0.29 M660.84 -1.61 C660.58 18.74, 657.55 32.37, 660.64 45.77 M658.16 -0.53 C658.81 12.83, 659.51 26.16, 659.1 44.98 M658.65 44.8 C464.19 44.23, 270.4 43.83, -0.7 44.69 M658.89 45.05 C475.1 43.16, 290.23 42.63, -0.02 44.6 M-0.14 46.91 C-1.05 27.08, -0.31 10.3, 1.83 -1.45 M0.32 44.85 C-0.27 27.4, 0.05 10.44, -0.68 0.67" stroke="#000000" stroke-width="1" fill="none"></path></g><g stroke-linecap="round" transform="translate(1932.08984375 787.48828125) rotate(0 54.125 8.337890625)"><path d="M-1.45 1.76 C44 1.34, 87.03 0.55, 107.66 1.88 M-0.72 0.55 C40.15 -0.76, 80.5 -0.92, 107.54 0.73 M106.91 1.36 C109.74 3.63, 107.1 10.96, 108.89 16.5 M107.81 -0.02 C108.18 4.96, 108.44 8.88, 108.23 16.64 M107.75 15.84 C85.77 17.1, 60.32 14.45, -0.78 16.27 M108.37 17.62 C73.16 15.86, 36.22 16.33, -1 17.4 M1.59 15.88 C-1.06 11.16, -1.1 7.52, -1.21 1.32 M-0.13 16.8 C-0.35 10.52, -0.26 3.01, 0.56 -0.55" stroke="#000000" stroke-width="1" fill="none"></path></g><g stroke-linecap="round" transform="translate(2499.5 785.75) rotate(0 18.5 12)"><path d="M1.76 1.16 C14.79 1.61, 28.17 -0.32, 38.88 1.37 M0.55 0.25 C14.03 0.96, 28.54 -0.45, 37.73 -0.12 M38.63 1.94 C35.82 4.13, 38.86 11.49, 36.79 23.27 M36.97 -0.19 C37.47 8.54, 36.9 16.81, 36.95 23.26 M36.17 25.98 C28.98 24.89, 17.43 23.12, -0.41 24.58 M37.95 24.53 C28.26 23.25, 20.52 23.05, 0.72 24.2 M-0.96 22.82 C-0.2 14.41, 1.85 5.8, 1.59 1.85 M0.15 23.46 C0.39 17.72, -0.76 12.97, -0.66 -0.17" stroke="#000000" stroke-width="1" fill="none"></path></g><g transform="translate(2423 785.25) rotate(0 32.5 12.5)"><text x="32.5" y="18" font-family="Virgil, Segoe UI Emoji" font-size="20px" fill="#000000" text-anchor="middle" style="white-space: pre;" direction="ltr">linkedin</text></g><g stroke-linecap="round" transform="translate(2419.5 787.75) rotate(0 36 10)"><path d="M0.62 1.35 C16.19 -1.01, 34.61 0.95, 73.93 0.21 M-0.64 0.7 C15.6 -0.89, 33.54 -0.3, 71.23 0.92 M70.6 -1.23 C73.8 5.16, 71.95 8.05, 73.01 18.33 M72.67 0.13 C72.09 4.92, 71.95 9.15, 71.41 19.57 M72.89 20.98 C50.45 19.93, 32 21.29, -1.56 19.45 M71.48 19.21 C49.52 19.38, 27.85 20.58, 0.49 19.93 M-0.22 18.78 C1.92 10.64, 1.68 6.04, -1.12 0.64 M0.47 19.58 C-0.71 14.98, -0.69 8.44, 0.41 0.06" stroke="#000000" stroke-width="1" fill="none"></path></g><g stroke-linecap="round" transform="translate(1906.1666666666665 50.08333333333337) rotate(0 329.5 33.5)"><path d="M-0.07 -0.24 C236.66 -1.22, 472.58 -1.69, 658.42 0.44 M-0.32 -0.29 C214.26 -1.89, 427.63 -1.47, 658.68 0.33 M660.64 0.77 C658.32 25.86, 659.54 51.49, 657.94 66.94 M659.1 -0.02 C659.4 18.09, 658.86 37.23, 658.75 66.58 M658.3 66.69 C396.03 68.53, 132.76 68.07, 0.09 67.76 M658.98 66.6 C426.85 65, 194.31 64.89, 0.38 66.81 M1.83 65.55 C1.66 52.7, -1.05 35.33, -0.31 0.29 M-0.68 67.67 C-0.97 50.32, 0.09 34.05, 0.24 -0.26" stroke="#000000" stroke-width="1" fill="none"></path></g><g stroke-linecap="round" transform="translate(1924.5 62.75) rotate(0 59 18.5)"><path d="M1.37 1.93 C34.58 -2.55, 69.85 -0.61, 116.71 1.39 M-0.12 -0.77 C26.83 -1.67, 52.64 0.1, 117.3 -0.61 M117.27 1.01 C116.47 13.07, 118.09 27.88, 119.34 37.25 M117.26 -0.59 C117.56 11.21, 117.57 23.91, 118.45 37.49 M118.58 35.44 C92.39 36.99, 69.77 37.81, -1.03 35.42 M118.2 37.49 C83.05 38.8, 47.76 37.26, -0.11 36.39 M1.85 35.88 C0.9 22.21, 0.56 6.96, 0.94 -0.85 M-0.17 37.41 C-0.19 28.65, -0.51 18.88, -0.06 0.15" stroke="#000000" stroke-width="1" fill="none"></path></g><g transform="translate(1950.5 69.75) rotate(0 28.5 12.5)"><text x="0" y="18" font-family="Virgil, Segoe UI Emoji" font-size="20px" fill="#000000" text-anchor="start" style="white-space: pre;" direction="ltr">LOGO</text></g><g transform="translate(2512.5 786.75) rotate(0 5.5 12.5)"><text x="0" y="18" font-family="Virgil, Segoe UI Emoji" font-size="20px" fill="#000000" text-anchor="start" style="white-space: pre;" direction="ltr">F</text></g><g transform="translate(2203.5 776.75) rotate(0 42 12.5)"><text x="0" y="18" font-family="Virgil, Segoe UI Emoji" font-size="20px" fill="#000000" text-anchor="start" style="white-space: pre;" direction="ltr">FOOTER</text></g><g transform="translate(2195 67.75) rotate(0 39 12.5)"><text x="39" y="18" font-family="Virgil, Segoe UI Emoji" font-size="20px" fill="#000000" text-anchor="middle" style="white-space: pre;" direction="ltr">NAVBAR</text></g><g transform="translate(1942.5 13.25) rotate(0 60 12.5)"><text x="0" y="18" font-family="Virgil, Segoe UI Emoji" font-size="20px" fill="#000000" text-anchor="start" style="white-space: pre;" direction="ltr">/sessions/:id</text></g><g transform="translate(1684.1666666666667 379.50000000000006) rotate(0 90.5 25)"><text x="0" y="18" font-family="Virgil, Segoe UI Emoji" font-size="20px" fill="#000000" text-anchor="start" style="white-space: pre;" direction="ltr">"session link saved</text><text x="0" y="43" font-family="Virgil, Segoe UI Emoji" font-size="20px" fill="#000000" text-anchor="start" style="white-space: pre;" direction="ltr">to clipboard"</text></g><g transform="translate(2409.5 70.75) rotate(0 47.5 12.5)"><text x="0" y="18" font-family="Virgil, Segoe UI Emoji" font-size="20px" fill="#000000" text-anchor="start" style="white-space: pre;" direction="ltr">Session id</text></g><g stroke-linecap="round" transform="translate(2257.209635416667 493.48958333333326) rotate(0 22.32096354166663 22.477213541666686)"><path d="M16.84 1.08 C21.47 -0.01, 29.53 1.59, 33.73 3.64 C37.93 5.68, 40.38 9.13, 42.06 13.38 C43.74 17.63, 45.23 24.28, 43.81 29.13 C42.38 33.98, 37.47 39.75, 33.53 42.49 C29.58 45.24, 24.65 46.32, 20.14 45.58 C15.64 44.84, 9.9 41.61, 6.48 38.04 C3.06 34.46, -0.23 28.88, -0.37 24.12 C-0.52 19.37, 1.86 13.52, 5.62 9.5 C9.39 5.49, 18.63 1.35, 22.22 0.02 C25.81 -1.32, 27.25 1.05, 27.15 1.48 M25.79 -0.93 C30.25 -0.17, 36.48 5.6, 39.54 9.4 C42.61 13.21, 44.2 17.09, 44.18 21.91 C44.15 26.72, 42.42 34.69, 39.38 38.29 C36.34 41.9, 30.65 43.01, 25.96 43.53 C21.27 44.05, 15.45 43.89, 11.24 41.44 C7.04 38.99, 2.38 33.18, 0.75 28.81 C-0.89 24.45, -0.3 19.71, 1.44 15.23 C3.18 10.75, 7.2 4.16, 11.17 1.93 C15.13 -0.3, 22.79 1.81, 25.24 1.86 C27.7 1.91, 25.98 1.88, 25.9 2.24" stroke="#000000" stroke-width="1" fill="none"></path></g><g transform="translate(2408.537760416666 564.1510416666667) rotate(0 17.5 12.5)"><text x="0" y="18" font-family="Virgil, Segoe UI Emoji" font-size="20px" fill="#000000" text-anchor="start" style="white-space: pre;" direction="ltr">1/10</text></g><g stroke-linecap="round" transform="translate(531.333333333333 1061.5) rotate(0 74.5 17)"><path d="M-0.34 1.42 C40.97 -0.31, 79.11 0.58, 148.39 -1.56 M-0.4 -0.82 C33.39 0.68, 65.91 0.08, 148.55 0.12 M147.49 -0.97 C149.13 7.97, 146.91 15.76, 149.43 32.82 M148.89 -0.93 C148.02 12.45, 148.5 25.57, 148.17 33.66 M150.52 35.22 C114.6 32.16, 78.41 30.88, -1.43 35.13 M148.51 33.44 C104.81 32.94, 59.57 33.04, -0.89 33.17 M0.9 34.93 C0.89 22.02, 1.23 9.22, -1.64 0.56 M0.21 33.85 C-1.11 26.21, -1.26 17.81, 0.34 0.65" stroke="#000000" stroke-width="1" fill="none"></path></g><g stroke-linecap="round" transform="translate(29.66666666666697 1042.5) rotate(0 329.5 384.5)"><path d="M0.57 0.6 C182.19 0.5, 365.05 0.2, 658.37 -0.62 M-0.33 0.08 C223.88 0.86, 447.64 0.87, 659.05 -0.22 M658.61 0.12 C659.67 190.55, 659.45 382.79, 658.53 769.63 M658.63 -0.27 C659.15 160.7, 659.24 321.22, 658.86 768.76 M659.49 769.57 C450.07 771.43, 240.89 770.43, 0.45 769 M658.78 769.18 C462.16 767.66, 265.2 767.36, -0.33 769.24 M0.37 769.37 C-0.86 532.26, -1.09 293.87, 0.22 -0.47 M-0.06 768.67 C2.91 474.74, 2.84 181.39, 0.26 -0.19" stroke="#000000" stroke-width="1" fill="none"></path></g><g stroke-linecap="round" transform="translate(30.66666666666697 1765.5) rotate(0 329.5 22.5)"><path d="M0.6 -0.32 C176.15 -1.83, 351.95 -2.5, 658.38 0.32 M0.08 -0.12 C154.11 1.81, 308.41 2.22, 658.78 -0.2 M659.31 -0.35 C656.75 13.79, 659.09 28.19, 660.58 43.18 M658.33 -0.43 C658.76 13.76, 658.12 27.6, 658.4 45.17 M659.57 44.74 C514.53 45.84, 368.63 47.06, 0 44.99 M659.18 45.16 C525.5 43.72, 391.76 43.2, 0.24 45.03 M0.92 45.25 C1.05 29.78, -1.85 15.75, -1.16 1.64 M-0.83 45.43 C-1.07 35.76, 0.24 26.66, -0.48 0.29" stroke="#000000" stroke-width="1" fill="none"></path></g><g stroke-linecap="round" transform="translate(57.25651041666697 1782.23828125) rotate(0 54.125 8.337890625)"><path d="M-0.8 0.14 C30.74 -1.41, 59.73 -2.35, 109.05 -1.32 M-0.3 -0.47 C27.27 -0.66, 56.46 -0.76, 107.74 0.26 M107.96 -1.59 C107.42 4.1, 107.19 8.81, 106.73 16.85 M107.89 -0.16 C107.92 4.13, 107.81 9.14, 108.39 16.01 M107.6 17.75 C65.65 16.03, 28.03 17.45, -0.02 14.73 M108.65 16.53 C81.53 16.27, 53 17.76, 0.09 16.99 M0.21 17.72 C-0.34 9.55, 0.39 4.19, 1.37 -1.48 M0.36 15.86 C0.24 11.61, 0.57 5.58, 0.24 -0.43" stroke="#000000" stroke-width="1" fill="none"></path></g><g stroke-linecap="round" transform="translate(624.666666666667 1780.5) rotate(0 18.5 12)"><path d="M0.14 0.09 C13.12 -1.42, 25.9 0.95, 35.68 -0.8 M-0.47 -0.9 C7.6 0.23, 15.55 -0.4, 37.26 -0.75 M35.09 -0.89 C37.47 4.85, 38.62 10.24, 37.21 23.78 M36.81 -0.21 C36.01 4.64, 36.24 10.11, 36.2 24.76 M38.07 22.08 C22.21 25.01, 10.27 23.86, -1.95 23.03 M36.85 24.49 C27.07 23.32, 19.53 24.23, 0.31 24.45 M1.26 23.69 C-1.75 16.25, -1.27 9.02, -1.78 0.42 M-0.98 24.26 C0.54 17.82, -0.28 10.62, -0.52 0.56" stroke="#000000" stroke-width="1" fill="none"></path></g><g transform="translate(548.166666666667 1780) rotate(0 32.5 12.5)"><text x="32.5" y="18" font-family="Virgil, Segoe UI Emoji" font-size="20px" fill="#000000" text-anchor="middle" style="white-space: pre;" direction="ltr">linkedin</text></g><g stroke-linecap="round" transform="translate(544.666666666667 1782.5) rotate(0 36 10)"><path d="M-0.61 -1.56 C17.19 0.77, 36.15 -0.83, 70.35 0.39 M-0.45 0.12 C18.91 0.14, 39.18 -0.1, 71.51 0.15 M72.43 -1.18 C73.39 3.83, 72.02 11.07, 70.15 18.66 M71.17 -0.34 C71.37 5.3, 71.16 11.03, 72.61 20.72 M70.57 21.13 C52.72 19.29, 31.5 18.33, -1.12 20.91 M71.11 19.17 C48.15 20.44, 23.42 20.81, 0.46 20.46 M-1.64 20.56 C-1.29 15.39, -1.91 7.92, -0.3 -1.67 M0.34 20.65 C-0.28 13.42, -0.33 6.82, 0.2 0.92" stroke="#000000" stroke-width="1" fill="none"></path></g><g stroke-linecap="round" transform="translate(31.33333333333303 1044.8333333333335) rotate(0 329.5 33.5)"><path d="M-0.63 -0.62 C202.6 0.27, 404.23 0.14, 659.16 -0.24 M0.05 -0.22 C166.3 1.29, 332.7 0.99, 659.06 -0.07 M657.82 1.58 C656.88 13.91, 658.48 25.54, 657.66 66.13 M658.66 -0.6 C659.03 18, 659.62 38.22, 659.72 66.68 M659.45 67 C425.88 64.34, 192.39 64.67, 0.36 67.32 M658.67 67.24 C471.18 64.77, 283.48 64.83, 0.18 67.05 M0.56 65.84 C1.75 40.91, 0.52 18.07, -1.67 0.87 M0.65 66.52 C0.12 52.93, 0.39 40.1, 0.92 -0.58" stroke="#000000" stroke-width="1" fill="none"></path></g><g stroke-linecap="round" transform="translate(49.66666666666697 1057.5) rotate(0 59 18.5)"><path d="M-1.54 0.8 C34.62 0.13, 70.24 1.31, 117.41 -0.95 M-0.55 -0.51 C25.02 -0.9, 49.03 0.01, 117.82 -0.96 M119.58 -1.82 C118.29 9.22, 116.22 17.56, 117.13 36.61 M117.4 0.17 C116.89 11.09, 118.31 21.39, 117.68 37.54 M117.99 36.98 C92 36.7, 68.78 38.57, 0.79 36.7 M118.6 37.09 C77.09 36.48, 36.02 36.49, 0.12 37.63 M-1.16 38.64 C-1.48 26.89, 0 14.29, 0.87 -1.95 M-0.48 37.29 C-0.65 25.52, 0.08 13.84, -0.58 0.29" stroke="#000000" stroke-width="1" fill="none"></path></g><g transform="translate(75.66666666666697 1064.5) rotate(0 28.5 12.5)"><text x="0" y="18" font-family="Virgil, Segoe UI Emoji" font-size="20px" fill="#000000" text-anchor="start" style="white-space: pre;" direction="ltr">LOGO</text></g><g transform="translate(637.666666666667 1781.5) rotate(0 5.5 12.5)"><text x="0" y="18" font-family="Virgil, Segoe UI Emoji" font-size="20px" fill="#000000" text-anchor="start" style="white-space: pre;" direction="ltr">F</text></g><g transform="translate(328.66666666666697 1771.5) rotate(0 42 12.5)"><text x="0" y="18" font-family="Virgil, Segoe UI Emoji" font-size="20px" fill="#000000" text-anchor="start" style="white-space: pre;" direction="ltr">FOOTER</text></g><g transform="translate(320.16666666666697 1062.5) rotate(0 39 12.5)"><text x="39" y="18" font-family="Virgil, Segoe UI Emoji" font-size="20px" fill="#000000" text-anchor="middle" style="white-space: pre;" direction="ltr">NAVBAR</text></g><g transform="translate(534.666666666667 1065.5) rotate(0 47.5 12.5)"><text x="0" y="18" font-family="Virgil, Segoe UI Emoji" font-size="20px" fill="#000000" text-anchor="start" style="white-space: pre;" direction="ltr">Session id</text></g><g transform="translate(2282.5 814.75) rotate(0 -916.25 111.25)" stroke="none" fill="#000000"><path d="M 1.49,0.44 Q 1.49,0.44 -0.69,7.63 -2.88,14.81 -6.76,21.60 -10.64,28.38 -15.15,35.54 -19.67,42.69 -24.51,48.66 -29.35,54.63 -36.51,60.82 -43.66,67.00 -53.21,73.24 -62.76,79.48 -73.34,84.31 -83.93,89.14 -99.27,93.36 -114.61,97.59 -130.42,102.24 -146.23,106.89 -171.00,111.04 -195.77,115.19 -214.89,118.38 -234.01,121.57 -252.21,124.37 -270.41,127.17 -286.06,129.07 -301.72,130.98 -314.15,131.80 -326.59,132.61 -336.91,132.96 -347.23,133.30 -356.65,133.45 -366.07,133.59 -374.38,133.66 -382.70,133.72 -392.75,133.02 -402.80,132.33 -414.25,131.32 -425.70,130.30 -437.83,127.70 -449.96,125.10 -459.38,123.29 -468.80,121.47 -479.24,119.99 -489.69,118.50 -497.75,117.15 -505.82,115.79 -514.97,114.50 -524.12,113.21 -534.52,111.22 -544.92,109.22 -553.63,107.66 -562.34,106.10 -570.30,105.44 -578.25,104.79 -586.00,103.78 -593.75,102.78 -600.65,101.63 -607.55,100.48 -614.72,100.00 -621.89,99.52 -630.74,98.60 -639.59,97.67 -649.85,95.83 -660.12,93.99 -670.19,92.50 -680.27,91.01 -689.54,90.38 -698.81,89.75 -710.64,89.48 -722.48,89.21 -729.68,89.09 -736.87,88.98 -744.24,88.93 -751.61,88.88 -759.11,88.14 -766.62,87.40 -773.34,87.08 -780.07,86.77 -788.72,85.92 -797.38,85.06 -805.38,83.98 -813.38,82.89 -818.89,82.44 -824.40,81.98 -831.82,81.07 -839.23,80.15 -845.29,79.04 -851.34,77.92 -856.71,77.46 -862.08,77.00 -867.23,76.80 -872.38,76.60 -878.16,76.52 -883.95,76.43 -890.00,76.40 -896.05,76.36 -903.65,76.35 -911.25,76.33 -916.64,76.32 -922.03,76.32 -927.83,77.03 -933.64,77.74 -939.06,78.05 -944.47,78.36 -951.10,78.49 -957.72,78.62 -967.72,78.67 -977.72,78.73 -988.44,78.75 -999.15,78.77 -1010.89,78.78 -1022.64,78.79 -1030.50,78.80 -1038.37,78.80 -1045.30,78.80 -1052.24,78.81 -1058.78,78.81 -1065.32,78.81 -1072.35,79.52 -1079.38,80.24 -1085.95,81.26 -1092.53,82.28 -1098.91,83.43 -1105.30,84.58 -1110.87,85.79 -1116.45,86.99 -1123.23,87.52 -1130.00,88.04 -1135.02,88.26 -1140.05,88.48 -1145.70,89.29 -1151.36,90.10 -1157.44,90.45 -1163.51,90.80 -1169.69,90.94 -1175.87,91.09 -1182.08,91.15 -1188.30,91.22 -1193.82,91.24 -1199.34,91.27 -1206.00,91.28 -1212.65,91.29 -1218.36,91.30 -1224.06,91.30 -1230.80,91.30 -1237.54,91.31 -1242.56,91.31 -1247.57,91.31 -1253.30,91.31 -1259.03,91.31 -1263.62,91.31 -1268.21,91.31 -1273.04,91.31 -1277.86,91.31 -1284.30,90.59 -1290.74,89.86 -1297.71,89.56 -1304.68,89.26 -1309.90,88.40 -1315.11,87.55 -1319.40,87.19 -1323.69,86.84 -1328.38,86.69 -1333.06,86.53 -1338.02,85.74 -1342.99,84.95 -1348.59,84.62 -1354.19,84.30 -1360.89,84.16 -1367.59,84.02 -1374.10,83.23 -1380.62,82.45 -1389.82,81.40 -1399.03,80.35 -1406.50,79.91 -1413.97,79.47 -1422.23,78.55 -1430.48,77.64 -1438.25,77.26 -1446.02,76.88 -1452.98,75.99 -1459.94,75.10 -1466.50,74.01 -1473.06,72.91 -1482.28,71.73 -1491.50,70.55 -1498.33,69.32 -1505.17,68.09 -1509.56,66.84 -1513.96,65.59 -1517.16,65.08 -1520.36,64.57 -1524.66,63.62 -1528.97,62.67 -1533.57,62.28 -1538.18,61.90 -1544.59,60.27 -1551.00,58.64 -1555.76,57.97 -1560.53,57.31 -1563.28,57.02 -1566.03,56.73 -1567.91,56.66 -1569.78,56.59 -1574.26,55.79 -1578.73,55.00 -1586.38,53.22 -1594.04,51.43 -1599.37,50.69 -1604.71,49.94 -1608.40,49.62 -1612.09,49.30 -1614.38,49.16 -1616.67,49.03 -1619.78,48.97 -1622.88,48.91 -1627.80,48.88 -1632.72,48.85 -1640.56,48.84 -1648.40,48.83 -1654.61,48.83 -1660.82,48.82 -1664.89,48.82 -1668.97,48.82 -1672.14,48.81 -1675.31,48.81 -1678.81,48.81 -1682.32,48.81 -1685.96,48.81 -1689.61,48.81 -1693.31,48.81 -1697.02,48.81 -1700.03,48.81 -1703.04,48.81 -1705.03,48.84 -1707.02,48.86 -1709.11,49.55 -1711.21,50.23 -1714.33,51.24 -1717.45,52.26 -1721.69,53.42 -1725.93,54.58 -1729.09,55.76 -1732.26,56.95 -1734.24,58.13 -1736.23,59.31 -1738.47,61.21 -1740.70,63.10 -1742.31,65.27 -1743.92,67.43 -1747.56,71.32 -1751.21,75.21 -1753.37,78.89 -1755.54,82.57 -1757.20,85.60 -1758.87,88.62 -1760.29,91.34 -1761.72,94.07 -1763.04,96.66 -1764.36,99.25 -1765.65,101.79 -1766.93,104.33 -1768.98,106.96 -1771.03,109.59 -1774.07,112.85 -1777.10,116.12 -1779.09,118.20 -1781.07,120.27 -1781.79,122.39 -1782.51,124.51 -1783.63,126.36 -1784.75,128.20 -1785.91,130.32 -1787.07,132.44 -1788.28,134.78 -1789.50,137.11 -1789.96,139.39 -1790.43,141.67 -1791.40,144.24 -1792.36,146.80 -1792.73,149.16 -1793.10,151.52 -1793.26,153.96 -1793.43,156.40 -1794.24,159.73 -1795.05,163.05 -1795.37,166.48 -1795.69,169.91 -1795.83,172.82 -1795.97,175.72 -1796.03,178.39 -1796.09,181.06 -1796.12,183.63 -1796.14,186.20 -1796.15,189.44 -1796.16,192.69 -1796.16,194.80 -1796.16,196.91 -1796.92,199.42 -1797.67,201.94 -1797.95,204.25 -1798.23,206.57 -1798.29,208.29 -1798.34,210.02 -1798.41,212.16 -1798.49,214.31 -1798.43,215.95 -1798.38,217.58 -1798.41,219.23 -1798.45,220.88 -1799.31,221.99 -1800.18,223.10 -1801.55,223.40 -1802.92,223.70 -1804.66,222.30 -1806.41,220.91 -1808.50,218.82 -1810.59,216.72 -1812.89,214.38 -1815.19,212.04 -1816.87,210.31 -1818.56,208.59 -1820.06,206.31 -1821.56,204.03 -1822.79,203.33 -1824.01,202.62 -1824.90,201.30 -1825.78,199.97 -1826.70,198.92 -1827.62,197.87 -1828.15,195.57 -1828.68,193.27 -1829.48,191.99 -1830.28,190.70 -1831.33,188.54 -1832.39,186.38 -1833.35,183.45 -1834.31,180.52 -1834.35,180.22 -1834.38,179.91 -1834.32,179.62 -1834.26,179.32 -1834.10,179.05 -1833.95,178.79 -1833.72,178.59 -1833.49,178.39 -1833.20,178.27 -1832.92,178.16 -1832.62,178.14 -1832.31,178.12 -1832.02,178.19 -1831.72,178.27 -1831.47,178.44 -1831.21,178.61 -1831.02,178.85 -1830.84,179.09 -1830.74,179.38 -1830.64,179.67 -1830.63,179.97 -1830.63,180.28 -1830.72,180.57 -1830.82,180.86 -1831.00,181.11 -1831.18,181.35 -1831.43,181.53 -1831.68,181.70 -1831.98,181.78 -1832.27,181.87 -1832.57,181.86 -1832.88,181.84 -1833.17,181.73 -1833.45,181.62 -1833.69,181.43 -1833.92,181.23 -1834.08,180.97 -1834.24,180.71 -1834.31,180.42 -1834.38,180.12 -1834.35,179.81 -1834.32,179.51 -1834.19,179.23 -1834.07,178.95 -1833.86,178.73 -1833.65,178.50 -1833.39,178.36 -1833.12,178.21 -1832.82,178.16 -1832.52,178.11 -1832.21,178.15 -1831.91,178.20 -1831.64,178.34 -1831.37,178.48 -1831.16,178.70 -1830.94,178.92 -1830.81,179.19 -1830.68,179.47 -1830.68,179.47 -1830.68,179.47 -1830.02,182.14 -1829.36,184.80 -1828.22,186.83 -1827.07,188.85 -1826.09,190.66 -1825.11,192.46 -1824.82,194.05 -1824.53,195.63 -1823.29,197.85 -1822.04,200.08 -1820.60,201.20 -1819.16,202.33 -1817.77,204.37 -1816.38,206.40 -1814.64,208.06 -1812.91,209.72 -1810.54,211.95 -1808.18,214.19 -1806.06,216.10 -1803.95,218.01 -1802.73,218.96 -1801.51,219.91 -1801.53,218.73 -1801.54,217.54 -1801.44,215.89 -1801.34,214.23 -1801.30,212.02 -1801.27,209.80 -1801.06,208.02 -1800.85,206.24 -1800.52,203.70 -1800.19,201.16 -1799.50,199.02 -1798.81,196.87 -1798.80,194.78 -1798.79,192.68 -1798.78,189.43 -1798.77,186.17 -1798.75,183.58 -1798.72,181.00 -1798.66,178.29 -1798.60,175.59 -1798.45,172.63 -1798.31,169.66 -1797.96,166.04 -1797.61,162.43 -1796.83,159.32 -1796.06,156.21 -1795.89,153.66 -1795.71,151.11 -1795.28,148.49 -1794.85,145.87 -1793.94,143.49 -1793.03,141.11 -1792.46,138.51 -1791.89,135.91 -1790.66,133.53 -1789.44,131.15 -1788.25,128.95 -1787.05,126.74 -1786.01,125.17 -1784.97,123.60 -1784.00,121.07 -1783.02,118.54 -1781.02,116.43 -1779.02,114.33 -1776.06,111.15 -1773.10,107.96 -1771.18,105.55 -1769.27,103.14 -1767.99,100.60 -1766.70,98.06 -1765.38,95.45 -1764.05,92.85 -1762.61,90.10 -1761.17,87.36 -1759.49,84.29 -1757.80,81.22 -1755.47,77.32 -1753.14,73.42 -1749.58,69.63 -1746.03,65.84 -1744.22,63.47 -1742.41,61.09 -1740.00,59.06 -1737.58,57.03 -1735.39,55.75 -1733.20,54.46 -1729.92,53.23 -1726.63,52.00 -1722.46,50.85 -1718.29,49.70 -1715.15,48.67 -1712.02,47.64 -1709.54,46.88 -1707.06,46.13 -1705.05,46.15 -1703.04,46.18 -1700.03,46.18 -1697.02,46.18 -1693.31,46.18 -1689.61,46.18 -1685.96,46.18 -1682.32,46.18 -1678.81,46.18 -1675.31,46.18 -1672.14,46.18 -1668.97,46.18 -1664.89,46.18 -1660.82,46.18 -1654.61,46.19 -1648.40,46.19 -1640.55,46.20 -1632.71,46.21 -1627.77,46.23 -1622.84,46.25 -1619.67,46.31 -1616.51,46.36 -1614.19,46.50 -1611.87,46.63 -1608.10,46.95 -1604.33,47.27 -1598.88,48.02 -1593.42,48.77 -1585.84,50.52 -1578.25,52.27 -1573.92,53.02 -1569.60,53.77 -1567.68,53.94 -1565.76,54.12 -1562.96,54.41 -1560.16,54.70 -1555.26,55.40 -1550.35,56.10 -1544.15,57.69 -1537.95,59.28 -1533.18,59.69 -1528.40,60.11 -1524.17,61.04 -1519.94,61.98 -1516.59,62.52 -1513.24,63.06 -1508.97,64.29 -1504.70,65.51 -1497.93,66.73 -1491.16,67.94 -1481.89,69.13 -1472.62,70.32 -1466.12,71.41 -1459.61,72.50 -1452.75,73.38 -1445.89,74.25 -1438.04,74.64 -1430.20,75.03 -1422.01,75.94 -1413.82,76.84 -1406.27,77.29 -1398.73,77.74 -1389.52,78.79 -1380.30,79.84 -1373.92,80.62 -1367.53,81.39 -1360.78,81.53 -1354.04,81.68 -1348.31,82.02 -1342.57,82.36 -1337.77,83.13 -1332.97,83.91 -1328.22,84.06 -1323.47,84.22 -1319.08,84.59 -1314.69,84.95 -1309.62,85.79 -1304.56,86.63 -1297.50,86.94 -1290.44,87.25 -1284.15,87.97 -1277.86,88.68 -1273.03,88.68 -1268.21,88.68 -1263.62,88.68 -1259.03,88.68 -1253.30,88.68 -1247.58,88.68 -1242.56,88.68 -1237.54,88.68 -1230.80,88.68 -1224.06,88.67 -1218.36,88.67 -1212.66,88.67 -1206.00,88.65 -1199.35,88.64 -1193.84,88.62 -1188.33,88.59 -1182.13,88.53 -1175.93,88.47 -1169.80,88.32 -1163.66,88.17 -1157.70,87.83 -1151.73,87.49 -1145.94,86.68 -1140.16,85.86 -1135.18,85.64 -1130.20,85.43 -1123.60,84.92 -1117.00,84.42 -1111.38,83.21 -1105.76,82.00 -1099.35,80.84 -1092.93,79.68 -1086.29,78.65 -1079.64,77.63 -1072.48,76.90 -1065.33,76.18 -1058.78,76.18 -1052.24,76.18 -1045.31,76.18 -1038.37,76.18 -1030.50,76.17 -1022.64,76.17 -1010.90,76.16 -999.16,76.15 -988.45,76.12 -977.73,76.10 -967.75,76.05 -957.77,75.99 -951.20,75.86 -944.62,75.73 -939.29,75.43 -933.96,75.13 -927.99,74.41 -922.03,73.69 -916.64,73.70 -911.25,73.70 -903.64,73.72 -896.03,73.74 -889.97,73.77 -883.91,73.81 -878.09,73.89 -872.28,73.98 -867.07,74.18 -861.85,74.38 -856.36,74.86 -850.87,75.34 -844.89,76.44 -838.91,77.54 -831.55,78.45 -824.19,79.37 -818.61,79.83 -813.03,80.29 -805.07,81.37 -797.12,82.45 -788.53,83.30 -779.94,84.15 -773.15,84.46 -766.36,84.78 -758.97,85.52 -751.59,86.25 -744.21,86.30 -736.83,86.35 -729.63,86.47 -722.42,86.58 -710.52,86.85 -698.63,87.13 -689.25,87.77 -679.88,88.41 -669.77,89.91 -659.66,91.41 -649.48,93.23 -639.31,95.06 -630.51,95.98 -621.71,96.90 -614.42,97.40 -607.12,97.89 -600.27,99.03 -593.41,100.17 -585.72,101.17 -578.03,102.17 -569.96,102.84 -561.88,103.51 -553.15,105.08 -544.42,106.64 -534.09,108.62 -523.76,110.61 -514.57,111.90 -505.38,113.20 -497.35,114.55 -489.32,115.90 -478.81,117.40 -468.30,118.89 -458.86,120.71 -449.41,122.53 -437.44,125.11 -425.47,127.68 -414.04,128.70 -402.62,129.71 -392.67,130.40 -382.72,131.09 -374.41,131.03 -366.11,130.96 -356.71,130.82 -347.31,130.67 -337.04,130.33 -326.76,129.98 -314.40,129.18 -302.04,128.37 -286.42,126.46 -270.81,124.56 -252.63,121.76 -234.45,118.97 -215.33,115.77 -196.21,112.58 -171.60,108.46 -146.98,104.34 -131.15,99.68 -115.32,95.02 -100.18,90.86 -85.04,86.70 -74.63,81.96 -64.23,77.22 -54.84,71.08 -45.44,64.94 -38.47,58.91 -31.50,52.89 -26.78,47.04 -22.06,41.19 -17.60,34.07 -13.15,26.95 -9.44,20.44 -5.74,13.93 -3.61,6.74 -1.49,-0.44 -1.42,-0.62 -1.34,-0.79 -1.23,-0.94 -1.11,-1.09 -0.96,-1.21 -0.82,-1.32 -0.65,-1.40 -0.48,-1.48 -0.29,-1.52 -0.11,-1.55 0.07,-1.54 0.26,-1.53 0.44,-1.48 0.62,-1.43 0.78,-1.33 0.95,-1.23 1.08,-1.10 1.21,-0.97 1.31,-0.81 1.41,-0.65 1.47,-0.47 1.53,-0.29 1.54,-0.10 1.56,0.07 1.52,0.26 1.49,0.44 1.49,0.44 L 1.49,0.44 Z"></path></g><g transform="translate(482.5 1039.75) rotate(0 41.25 -11.25)" stroke="none" fill="#000000"><path d="M -0.53,-1.61 Q -0.53,-1.61 1.63,-2.28 3.80,-2.95 9.14,-3.96 14.47,-4.97 21.63,-7.51 28.78,-10.04 36.25,-11.86 43.72,-13.69 49.00,-15.16 54.28,-16.63 59.42,-17.98 64.57,-19.32 68.88,-20.60 73.20,-21.88 75.89,-22.43 78.59,-22.98 80.84,-22.17 83.10,-21.36 83.30,-21.23 83.51,-21.09 83.66,-20.90 83.80,-20.71 83.88,-20.49 83.96,-20.26 83.97,-20.02 83.97,-19.77 83.90,-19.54 83.82,-19.31 83.68,-19.12 83.54,-18.93 83.34,-18.79 83.14,-18.65 82.91,-18.58 82.68,-18.51 82.44,-18.52 82.19,-18.53 81.97,-18.62 81.74,-18.71 81.56,-18.86 81.37,-19.01 81.24,-19.22 81.12,-19.42 81.06,-19.66 81.01,-19.89 81.03,-20.13 81.05,-20.37 81.15,-20.59 81.25,-20.82 81.41,-20.99 81.58,-21.17 81.79,-21.29 82.00,-21.40 82.24,-21.45 82.47,-21.49 82.71,-21.45 82.95,-21.42 83.17,-21.31 83.38,-21.20 83.55,-21.02 83.72,-20.85 83.82,-20.63 83.93,-20.41 83.96,-20.17 83.99,-19.93 83.94,-19.70 83.89,-19.46 83.77,-19.25 83.65,-19.04 83.46,-18.89 83.28,-18.73 83.06,-18.63 82.84,-18.54 82.60,-18.53 82.35,-18.51 82.12,-18.57 81.89,-18.63 81.89,-18.63 81.89,-18.63 80.36,-19.51 78.83,-20.39 76.40,-19.83 73.97,-19.28 69.62,-17.98 65.27,-16.67 60.15,-15.31 55.04,-13.95 49.72,-12.44 44.40,-10.92 37.08,-9.10 29.76,-7.29 22.41,-4.64 15.06,-1.99 9.94,-0.95 4.81,0.07 2.67,0.84 0.53,1.61 0.33,1.65 0.13,1.69 -0.06,1.69 -0.27,1.68 -0.47,1.62 -0.66,1.56 -0.84,1.46 -1.02,1.36 -1.17,1.21 -1.32,1.07 -1.43,0.90 -1.54,0.72 -1.60,0.53 -1.67,0.34 -1.68,0.13 -1.70,-0.06 -1.67,-0.27 -1.63,-0.47 -1.55,-0.66 -1.47,-0.85 -1.35,-1.01 -1.22,-1.18 -1.06,-1.31 -0.91,-1.44 -0.72,-1.52 -0.53,-1.61 -0.53,-1.61 L -0.53,-1.61 Z"></path></g><g transform="translate(67.66666666666697 1008) rotate(0 99.5 12.5)"><text x="0" y="18" font-family="Virgil, Segoe UI Emoji" font-size="20px" fill="#000000" text-anchor="start" style="white-space: pre;" direction="ltr">/sessions/:id/results</text></g><g stroke-linecap="round" transform="translate(96.66666666666666 1171) rotate(0 99.16666666666667 271.66666666666674)"><path d="M-1.25 -1.39 C61.08 -0.46, 122.05 1.15, 198.22 0.29 M0.05 -0.15 C63.88 0.43, 127.41 -0.29, 197.58 -0.8 M198.27 -0.32 C197.22 134.98, 198.09 270.19, 198.54 543.97 M198.41 0.18 C198.22 142.19, 198.31 283.96, 198.31 543.58 M199.66 544.78 C156.73 543.45, 116.34 542.68, -1.05 544.7 M198.77 543.47 C144.31 543.36, 88.77 544.21, -0.55 544.19 M-0.05 544.03 C-1.4 398.15, -1.61 253.88, 0.09 -0.68 M0.11 543.62 C-0.69 407.77, -0.9 271.69, 0.21 0.06" stroke="#000000" stroke-width="1" fill="none"></path></g><g transform="translate(105 1143.6666666666667) rotate(0 75.5 12.5)"><text x="0" y="18" font-family="Virgil, Segoe UI Emoji" font-size="20px" fill="#000000" text-anchor="start" style="white-space: pre;" direction="ltr">Your selections:</text></g><g stroke-linecap="round" transform="translate(126.66666666666666 1194.3333333333335) rotate(0 40 48.33333333333337)"><path d="M0.28 1.94 C28.07 0.5, 57.99 -1.46, 81.71 -0.67 M0.87 -0.15 C28.35 -0.37, 57.86 0.16, 79.15 -0.5 M81.41 1.3 C81.1 33.49, 79.34 67.51, 80.31 95.71 M80.93 0.06 C78.84 26.68, 79.79 52.72, 80.1 95.92 M80.75 95.62 C54.46 97.76, 29.26 96.67, -1.44 95 M79.31 97.43 C55.02 97.03, 29.95 96.3, 0.82 96.96 M1.73 97.69 C0.01 63.98, -0.83 28.34, 1.27 0.63 M0.86 96.85 C0.06 67.37, 1.41 37.84, 0.93 -0.28" stroke="#000000" stroke-width="1" fill="none"></path></g><g stroke-linecap="round" transform="translate(128.33333333333331 1326) rotate(0 36.66666666666667 48.333333333333314)"><path d="M-0.84 1.59 C24.82 1.88, 47.7 -1.52, 73.73 -0.04 M0.02 0.15 C29.43 -0.01, 57.75 -0.45, 73.43 -0.48 M72.97 1.85 C71.74 22.66, 74.31 45.15, 74.32 96.01 M73.18 0.55 C73.6 33.47, 74.81 68.03, 73.4 96.17 M72.49 97.39 C58.42 97.79, 41.63 96.25, 1.87 94.7 M72.43 96.86 C48.42 96.86, 24.17 96.65, -0.06 96.86 M-0.01 96.19 C1.71 69.54, -1.36 40.94, 1.84 0.2 M0.11 96.29 C1.02 64.85, 1.01 31.66, -0.65 0.15" stroke="#000000" stroke-width="1" fill="none"></path></g><g stroke-linecap="round" transform="translate(135 1476) rotate(0 35.83333333333333 38.33333333333337)"><path d="M-1.8 0.39 C22.45 2.57, 46.23 2.15, 71.55 0.4 M0 -0.24 C21.16 0.64, 40.07 0.13, 72.59 0.1 M71.88 -0.76 C72.62 25.82, 72.59 48.87, 70.36 76.96 M72.67 -0.82 C72.14 18.19, 72.21 35.97, 72.18 77.18 M70.59 76.49 C51.31 74.81, 33.7 75.7, 0.61 77.3 M71.85 75.86 C51.54 77.62, 32.7 77.13, -0.67 77.19 M-1.7 75.79 C-1.77 54.94, 2.06 32.88, 0.71 1.93 M-0.3 76.68 C-0.23 52.39, 1.08 28.22, -0.62 0.13" stroke="#000000" stroke-width="1" fill="none"></path></g><g transform="translate(135 1292) rotate(0 32.5 12.5)"><text x="0" y="18" font-family="Virgil, Segoe UI Emoji" font-size="20px" fill="#000000" text-anchor="start" style="white-space: pre;" direction="ltr">movie 1</text></g><g transform="translate(133.33333333333331 1430.3333333333335) rotate(0 37 12.5)"><text x="0" y="18" font-family="Virgil, Segoe UI Emoji" font-size="20px" fill="#000000" text-anchor="start" style="white-space: pre;" direction="ltr">movie 2</text></g><g transform="translate(138.33333333333331 1560.3333333333335) rotate(0 36.5 12.5)"><text x="0" y="18" font-family="Virgil, Segoe UI Emoji" font-size="20px" fill="#000000" text-anchor="start" style="white-space: pre;" direction="ltr">movie 3</text></g><g stroke-linecap="round" transform="translate(406.6666666666667 1171) rotate(0 110.83333333333334 270)"><path d="M1.31 -1.57 C79.03 2.09, 157.16 0.07, 223.18 0 M0.49 -0.67 C71.47 -1, 143.86 -1.03, 221.67 0.22 M221.35 0.18 C221.27 186.02, 220.54 371.08, 221.92 540.54 M221.44 0.28 C219.91 152.35, 220.28 305.04, 221.39 540.36 M222.78 540.17 C152.17 537.46, 83.92 539.32, -0.66 539.89 M222.19 540.77 C134.94 541.55, 47.63 540.77, 0.72 540.44 M0.59 539.84 C-1.77 392.18, -2.04 243.93, -0.34 0.18 M0.08 539.87 C0.52 383.51, 0.87 227.64, 0.06 -0.37" stroke="#000000" stroke-width="1" fill="none"></path></g><g transform="translate(413.33333333333337 1142) rotate(0 81.00000000000001 12.5)"><text x="0" y="18" font-family="Virgil, Segoe UI Emoji" font-size="20px" fill="#000000" text-anchor="start" style="white-space: pre;" direction="ltr">Group selections</text></g><g transform="translate(421.66666666666663 1397) rotate(0 95.99999999999999 25)"><text x="0" y="18" font-family="Virgil, Segoe UI Emoji" font-size="20px" fill="#000000" text-anchor="start" style="white-space: pre;" direction="ltr">"Waiting for session</text><text x="0" y="43" font-family="Virgil, Segoe UI Emoji" font-size="20px" fill="#000000" text-anchor="start" style="white-space: pre;" direction="ltr">to end"</text></g><g transform="translate(9.999999999999972 1833.666666666667) rotate(0 439 25)"><text x="0" y="18" font-family="Virgil, Segoe UI Emoji" font-size="20px" fill="#000000" text-anchor="start" style="white-space: pre;" direction="ltr">- server checks number of completions</text><text x="0" y="43" font-family="Virgil, Segoe UI Emoji" font-size="20px" fill="#000000" text-anchor="start" style="white-space: pre;" direction="ltr">- if number of completions = number participants -&gt; render new /sessions/:id/results page</text></g><g stroke-linecap="round" transform="translate(2104 631.8333333333334) rotate(0 141 44)"><path d="M1.22 0.72 C93.2 -1.08, 184.71 -1.49, 280.54 -1.13 M0.38 0.32 C94.04 1.47, 186.83 2.09, 282.49 0.3 M282.14 -0.6 C281.05 22.8, 282.07 44.34, 281.86 86.77 M282.88 -0.42 C281.56 28.84, 282.19 59.89, 282.7 87.06 M282.3 88.89 C182.91 89.95, 82.4 90.01, -0.94 88.37 M281.97 87.71 C186.55 89.22, 91.17 89.1, -0.16 87.54 M-1.77 88.6 C1.01 56.99, 0.9 27.56, 1.45 -1.4 M0.71 88.12 C-0.11 55.94, 0.05 24.43, -0.93 0.12" stroke="#000000" stroke-width="1" fill="none"></path></g><g transform="translate(2184 662.8333333333334) rotate(0 80.5 12.5)"><text x="0" y="18" font-family="Virgil, Segoe UI Emoji" font-size="20px" fill="#000000" text-anchor="start" style="white-space: pre;" direction="ltr">Click for results</text></g></svg>